<?xml version="1.0" standalone="yes"?>
<svg xmlns="http://www.w3.org/2000/svg" width="500" height="500">
<path style="fill:#010101; stroke:none;" d="M0 0L0 398C24.0176 389.822 47.041 370.449 72 366C73.7896 407.048 132.607 416.471 163 404.934C178.68 398.983 196.215 384.987 191.073 366C184.286 340.942 141.059 337.638 120 332.373C77.238 321.683 32.0157 306.019 13.8611 262C10.2218 253.176 8.86777 244.384 7.71528 235C6.41156 224.385 7.67062 212.289 10.7207 202C33.3994 125.493 121.713 97.9852 192 121.667C211.503 128.239 229.459 139.461 243.999 154.001C248.616 158.617 256.47 165.395 258.124 171.996C259.428 177.197 251.465 180.69 248 183C237.236 190.177 226.651 197.633 216 204.975C212.867 207.134 207.051 212.835 203.004 212.245C199.167 211.685 196.43 206.604 193.91 204.09C188.504 198.694 181.735 193.915 175 190.323C146.566 175.159 86.9536 178.773 85.0394 221C83.8892 246.372 115.254 254.862 135 260.975C173.366 272.85 219.999 275.338 249.83 305.17C261.902 317.242 264.444 331.403 273 345C286.185 322.643 302.009 305.515 327 296.436C373.331 279.604 448.623 301.112 457 357L426 357C421.762 357 415.913 358.007 412.04 355.972C407.416 353.542 404.831 347.654 400.985 344.184C393.146 337.112 382.432 332.648 372 331.289C360.255 329.759 347.619 331.488 337 336.81C327.129 341.758 319.191 350.165 314.27 360C299.214 390.09 310.718 430.918 343 443.536C369.591 453.93 410.277 441.512 415 410L355 410C355 402.637 350.27 383.193 355.742 377.603C360.153 373.098 376.981 376 383 376L462 376L460 412C465.579 412.046 471.023 412.812 476 415.519C510.92 434.512 481.689 488.189 448 468.637C443.532 466.043 439.942 462.177 437 458L435 458C406.065 498.229 330.646 494.836 297 463.907C287.776 455.427 279.161 445.499 273.9 434C270.499 426.564 269.667 416.548 265 410C252.05 431.155 235.907 448.915 214 461.138C143.028 500.736 32.7755 481.902 1 400L0 400L0 500L500 500L500 0L0 0z"/>
<path style="fill:#dadada; stroke:none;" d="M72 366L48 375.691L0 398C24.0427 482.103 141.071 498.212 209 464.247C231.841 452.826 254.684 433.94 265 410C275.121 430.161 278.291 447.628 296 463.907C336.333 500.983 398.805 490.651 437 458C438.318 452.827 443.115 448.543 445.934 444C451.546 434.955 457.064 423.725 458 413L468 413L468 412L460 412L462 376L382 376C376.628 376 358.697 373.162 355.179 377.603C350.25 383.827 355 402.375 355 410L415 410C406.658 445.12 362.33 455.793 334 438.536C307.918 422.649 300.987 385.029 315.313 359C320.275 349.985 327.914 342.189 337 337.324C346.985 331.978 358.784 330.048 370 331.171C380.783 332.249 391.906 336.988 399.996 344.184C403.939 347.692 407.044 354.46 412.04 356.397C423.835 360.968 444.329 357 457 357C454.912 333.23 431.998 311.752 412 301.753C364.019 277.762 295.005 292.426 273 345C266.504 330.346 262.275 317.046 250.715 305.17C223.01 276.708 176.711 271.813 140 262.116C120.434 256.947 83.2228 246.588 85.0903 221C88.1065 179.671 145.492 175.12 174 190.323C180.772 193.935 187.459 198.74 192.961 204.09C195.721 206.774 198.814 212.511 203.004 212.967C207.178 213.421 212.753 207.866 216 205.656C226.696 198.374 237.234 190.847 248 183.667C251.398 181.401 259.399 177.926 258.98 172.985C258.452 166.767 250.07 159.181 245.985 155C230.68 139.334 211.729 127.916 191 121C122.363 98.0989 35.6318 124.483 11.6698 198C0.638267 231.845 9.91192 274.412 38 297.536C60.7508 316.267 89.9183 325.106 118 332.127C139.79 337.574 184.063 340.969 191.073 367C196.109 385.704 176.093 399.912 161 405.302C130.415 416.224 75.2414 405.631 72 366z"/>
<path style="fill:#dca3a3; stroke:none;" d="M458 413L459 414L458 413z"/>
<path style="fill:#c33b3b; stroke:none;" d="M459.728 414.028C456.813 416.29 456.195 422.683 454.936 426C452.014 433.699 447.988 441.252 443.279 448C441.367 450.739 437.504 454.332 438.161 458C441.343 475.743 470.891 473.444 480.985 465.471C493.248 455.785 495.74 436.102 485.671 424.004C481.291 418.742 467.138 408.276 459.728 414.028z"/>
<path style="fill:#d07070; stroke:none;" d="M469 413L470 414L469 413z"/>
<path style="fill:#dadada; stroke:none;" d="M470.667 413.333L471.333 413.667L470.667 413.333z"/>
<path style="fill:#d07070; stroke:none;" d="M458 414L459 415L458 414M472 414L473 415L472 414z"/>
<path style="fill:#dca3a3; stroke:none;" d="M473 414L474 415L473 414z"/>
<path style="fill:#dadada; stroke:none;" d="M474 414L475 415L474 414z"/>
<path style="fill:#dca3a3; stroke:none;" d="M475 415L476 416L475 415z"/>
<path style="fill:#dadada; stroke:none;" d="M476 415L478 417L476 415z"/>
<path style="fill:#d07070; stroke:none;" d="M476 416L477 417L476 416z"/>
<path style="fill:#dca3a3; stroke:none;" d="M457 417L458 418L457 417z"/>
<path style="fill:#d07070; stroke:none;" d="M478 417L479 418L478 417z"/>
<path style="fill:#dadada; stroke:none;" d="M479 417L480 418L479 417z"/>
<path style="fill:#d07070; stroke:none;" d="M457 418L458 419L457 418z"/>
<path style="fill:#dca3a3; stroke:none;" d="M480 418L481 419L480 418z"/>
<path style="fill:#d07070; stroke:none;" d="M481 419L485 423L481 419z"/>
<path style="fill:#dadada; stroke:none;" d="M482 419L483 420L482 419z"/>
<path style="fill:#dca3a3; stroke:none;" d="M456 420L457 421L456 420z"/>
<path style="fill:#dadada; stroke:none;" d="M483 420L484 421L483 420z"/>
<path style="fill:#d07070; stroke:none;" d="M456 421L457 422L456 421z"/>
<path style="fill:#dadada; stroke:none;" d="M484 421L485 422L484 421z"/>
<path style="fill:#dca3a3; stroke:none;" d="M455 423L456 424L455 423M485 423L486 424L485 423z"/>
<path style="fill:#d07070; stroke:none;" d="M455 424L456 425L455 424z"/>
<path style="fill:#dadada; stroke:none;" d="M486 424L487 425L486 424M487 425L488 426L487 425z"/>
<path style="fill:#dca3a3; stroke:none;" d="M454 426L455 427L454 426z"/>
<path style="fill:#d07070; stroke:none;" d="M487 426L488 427L487 426M454 427L455 428L454 427z"/>
<path style="fill:#dca3a3; stroke:none;" d="M488 427L489 428L488 427z"/>
<path style="fill:#d07070; stroke:none;" d="M453 429L454 430L453 429z"/>
<path style="fill:#dca3a3; stroke:none;" d="M489 429L490 430L489 429z"/>
<path style="fill:#dadada; stroke:none;" d="M490 430L491 431L490 430z"/>
<path style="fill:#dca3a3; stroke:none;" d="M452 431L453 432L452 431M490 431L491 432L490 431z"/>
<path style="fill:#d07070; stroke:none;" d="M490 432L491 433L490 432z"/>
<path style="fill:#dca3a3; stroke:none;" d="M451 433L452 434L451 433z"/>
<path style="fill:#d07070; stroke:none;" d="M451 434L452 435L451 434z"/>
<path style="fill:#dadada; stroke:none;" d="M491 434L492 435L491 434z"/>
<path style="fill:#dca3a3; stroke:none;" d="M450 435L451 436L450 435M491 435L492 436L491 435z"/>
<path style="fill:#d07070; stroke:none;" d="M491 436L492 437L491 436z"/>
<path style="fill:#dca3a3; stroke:none;" d="M449 437L450 438L449 437M448 439L449 440L448 439z"/>
<path style="fill:#dadada; stroke:none;" d="M492 439L492 446L493 446L492 439z"/>
<path style="fill:#d07070; stroke:none;" d="M447 441L448 442L447 441M446 443L447 444L446 443z"/>
<path style="fill:#dca3a3; stroke:none;" d="M445 444L446 445L445 444z"/>
<path style="fill:#d07070; stroke:none;" d="M444 446L445 447L444 446z"/>
<path style="fill:#dca3a3; stroke:none;" d="M443 447L444 448L443 447z"/>
<path style="fill:#d07070; stroke:none;" d="M491.333 447.667L491.667 448.333L491.333 447.667M442 449L443 450L442 449z"/>
<path style="fill:#dca3a3; stroke:none;" d="M491 449L492 450L491 449M441 450L442 451L441 450z"/>
<path style="fill:#dadada; stroke:none;" d="M491 450L492 451L491 450z"/>
<path style="fill:#dca3a3; stroke:none;" d="M440 451L441 452L440 451z"/>
<path style="fill:#d07070; stroke:none;" d="M490 451L491 452L490 451z"/>
<path style="fill:#dca3a3; stroke:none;" d="M490 452L491 453L490 452z"/>
<path style="fill:#d07070; stroke:none;" d="M439 453L440 454L439 453z"/>
<path style="fill:#dadada; stroke:none;" d="M490 453L491 454L490 453z"/>
<path style="fill:#d07070; stroke:none;" d="M438 454L439 455L438 454M489 454L490 455L489 454M437 455L438 456L437 455z"/>
<path style="fill:#dadada; stroke:none;" d="M489 455L490 456L489 455z"/>
<path style="fill:#dca3a3; stroke:none;" d="M436 456L437 457L436 456z"/>
<path style="fill:#d07070; stroke:none;" d="M488 456L489 457L488 456z"/>
<path style="fill:#dadada; stroke:none;" d="M488 457L489 458L488 457z"/>
<path style="fill:#dca3a3; stroke:none;" d="M437 458L438 459L437 458M487 458L488 459L487 458z"/>
<path style="fill:#dadada; stroke:none;" d="M437 459L439 461L437 459z"/>
<path style="fill:#d07070; stroke:none;" d="M438 459L439 460L438 459M486 459L487 460L486 459z"/>
<path style="fill:#dadada; stroke:none;" d="M487 459L488 460L487 459M486 460L487 461L486 460M439 461L440 462L439 461M485 461L486 462L485 461z"/>
<path style="fill:#dca3a3; stroke:none;" d="M440 462L441 463L440 462M484 462L485 463L484 462z"/>
<path style="fill:#d07070; stroke:none;" d="M441 463L442 464L441 463z"/>
<path style="fill:#dca3a3; stroke:none;" d="M483 463L484 464L483 463M442 464L443 465L442 464M482 464L483 465L482 464z"/>
<path style="fill:#dadada; stroke:none;" d="M443 465L444 466L443 465M481 465L482 466L481 465M444 466L446 468L444 466z"/>
<path style="fill:#d07070; stroke:none;" d="M445 466L446 467L445 466M479 466L480 467L479 466z"/>
<path style="fill:#dadada; stroke:none;" d="M480 466L481 467L480 466z"/>
<path style="fill:#dca3a3; stroke:none;" d="M446 467L447 468L446 467M478 467L479 468L478 467z"/>
<path style="fill:#dadada; stroke:none;" d="M479 467L480 468L479 467M447 468L448 469L447 468z"/>
<path style="fill:#dca3a3; stroke:none;" d="M448 468L449 469L448 468M476 468L477 469L476 468z"/>
<path style="fill:#dadada; stroke:none;" d="M477 468L478 469L477 468M449 469L450 470L449 469z"/>
<path style="fill:#d07070; stroke:none;" d="M450 469L451 470L450 469M474 469L475 470L474 469z"/>
<path style="fill:#dadada; stroke:none;" d="M475 469L476 470L475 469M451 470L452 471L451 470z"/>
<path style="fill:#dca3a3; stroke:none;" d="M452 470L453 471L452 470z"/>
<path style="fill:#d07070; stroke:none;" d="M453 470L454 471L453 470M471 470L472 471L471 470z"/>
<path style="fill:#dca3a3; stroke:none;" d="M472 470L473 471L472 470z"/>
<path style="fill:#dadada; stroke:none;" d="M473 470L474 471L473 470M454 471L455 472L454 471z"/>
<path style="fill:#dca3a3; stroke:none;" d="M455 471L456 472L455 471z"/>
<path style="fill:#d07070; stroke:none;" d="M456.667 471.333L457.333 471.667L456.667 471.333M467.667 471.333L468.333 471.667L467.667 471.333z"/>
<path style="fill:#dca3a3; stroke:none;" d="M469 471L470 472L469 471z"/>
<path style="fill:#dadada; stroke:none;" d="M470 471L471 472L470 471M460 472L460 473L465 473L460 472z"/>
</svg>
