<?xml version="1.0" standalone="no"?>
<!DOCTYPE svg PUBLIC "-//W3C//DTD SVG 20010904//EN"
 "http://www.w3.org/TR/2001/REC-SVG-20010904/DTD/svg10.dtd">
<svg version="1.0" xmlns="http://www.w3.org/2000/svg"
 width="500.000000pt" height="158.000000pt" viewBox="0 0 500.000000 158.000000"
 preserveAspectRatio="xMidYMid meet">
<metadata>
Created by potrace 1.16, written by Peter Selinger 2001-2019
</metadata>
<g transform="translate(0.000000,158.000000) scale(0.100000,-0.100000)"
fill="#000000" stroke="none">
<path d="M2797 1380 c-136 -23 -217 -110 -217 -235 0 -92 43 -165 120 -205 19
-10 89 -32 155 -49 156 -41 192 -75 165 -156 -17 -52 -53 -70 -135 -70 -58 1
-79 6 -124 30 -29 16 -66 45 -82 64 -17 21 -32 31 -37 26 -5 -6 -28 -34 -52
-63 l-43 -53 50 -48 c68 -65 140 -92 264 -98 111 -6 182 10 246 56 99 71 120
243 43 350 -37 50 -106 83 -235 111 -55 11 -113 29 -130 39 -58 33 -59 107 -2
141 64 39 222 19 266 -33 24 -30 29 -27 87 56 27 37 27 38 8 58 -30 33 -106
67 -175 79 -72 11 -103 11 -172 0z"/>
<path d="M22 1303 l3 -68 123 -3 122 -3 0 -349 0 -350 80 0 80 0 0 350 0 349
123 3 122 3 3 68 3 67 -331 0 -331 0 3 -67z"/>
<path d="M810 950 l0 -420 285 0 285 0 0 70 0 70 -200 0 -200 0 0 115 0 115
170 0 170 0 0 70 0 70 -170 0 -170 0 0 95 0 95 195 0 195 0 0 70 0 70 -280 0
-280 0 0 -420z"/>
<path d="M1540 950 l0 -420 75 0 75 0 0 280 c0 154 3 280 8 280 4 0 43 -102
86 -227 43 -126 88 -252 98 -280 l19 -53 69 0 68 0 30 83 c16 45 60 171 98
280 38 108 72 197 76 197 4 0 8 -126 8 -280 l0 -280 80 0 80 0 0 420 0 420
-109 0 -109 0 -102 -302 c-57 -167 -106 -307 -110 -311 -8 -9 -27 40 -145 386
l-78 227 -108 0 -109 0 0 -420z"/>
<path d="M3365 711 c-64 -27 -82 -114 -32 -157 59 -50 159 -21 173 50 14 77
-66 137 -141 107z"/>
</g>
</svg>
