<?xml version="1.0" standalone="no"?>
<!DOCTYPE svg PUBLIC "-//W3C//DTD SVG 20010904//EN"
 "http://www.w3.org/TR/2001/REC-SVG-20010904/DTD/svg10.dtd">
<svg version="1.0" xmlns="http://www.w3.org/2000/svg"
 width="500.000000pt" height="500.000000pt" viewBox="0 0 500.000000 500.000000"
 preserveAspectRatio="xMidYMid meet">
<metadata>
Created by potrace 1.16, written by Peter Selinger 2001-2019
</metadata>
<g transform="translate(0.000000,500.000000) scale(0.100000,-0.100000)"
fill="#000000" stroke="none">
<path d="M880 4210 l0 -150 250 0 250 0 0 -730 0 -730 175 0 175 0 0 730 0
730 230 0 230 0 0 -730 0 -730 595 0 595 0 0 145 0 145 -420 0 -420 0 0 240 0
240 360 0 360 0 0 140 0 140 -360 0 -360 0 0 210 0 210 410 0 410 0 0 145 0
145 -1240 0 -1240 0 0 -150z"/>
<path d="M3375 2281 c-297 -49 -475 -231 -475 -487 0 -233 125 -397 365 -479
28 -9 126 -34 219 -56 284 -66 346 -110 346 -248 0 -153 -88 -222 -280 -222
-176 1 -291 49 -413 172 -43 44 -83 79 -90 79 -7 0 -49 -45 -93 -99 -43 -55
-82 -100 -86 -100 -5 -1 -8 321 -8 714 l0 715 -220 0 c-121 0 -220 -2 -220 -4
0 -9 -441 -1290 -445 -1295 -3 -2 -10 0 -15 5 -7 7 -450 1277 -450 1291 0 2
-101 3 -225 3 l-225 0 0 -880 0 -880 155 0 155 0 0 580 c0 553 1 580 18 580
15 0 53 -101 219 -577 l201 -578 145 -3 145 -3 30 83 c16 46 107 307 202 581
144 413 176 497 192 497 17 0 18 -24 18 -580 l0 -580 160 0 160 0 0 131 0 131
79 -75 c92 -86 197 -143 331 -179 75 -20 107 -23 280 -23 185 1 199 2 276 28
218 73 339 224 360 447 14 158 -32 305 -126 404 -90 95 -212 145 -490 201
-156 31 -228 56 -272 93 -78 66 -78 198 1 265 47 39 120 57 236 57 145 0 258
-38 344 -115 21 -19 47 -35 57 -34 12 0 48 41 103 117 l84 116 -52 48 c-63 58
-189 120 -291 143 -84 20 -324 29 -405 16z"/>
</g>
</svg>
