<?xml version="1.0" standalone="no"?>
<!DOCTYPE svg PUBLIC "-//W3C//DTD SVG 20010904//EN"
 "http://www.w3.org/TR/2001/REC-SVG-20010904/DTD/svg10.dtd">
<svg version="1.0" xmlns="http://www.w3.org/2000/svg"
 width="500.000000pt" height="500.000000pt" viewBox="0 0 500.000000 500.000000"
 preserveAspectRatio="xMidYMid meet">
<metadata>
Created by potrace 1.16, written by Peter Selinger 2001-2019
</metadata>
<g transform="translate(0.000000,500.000000) scale(0.100000,-0.100000)"
fill="#000000" stroke="none">
<path d="M3975 3483 c-91 -11 -190 -39 -265 -75 -182 -87 -280 -245 -280 -450
0 -226 97 -379 304 -478 36 -17 160 -53 292 -86 282 -69 338 -95 381 -179 18
-34 21 -146 5 -186 -18 -46 -70 -96 -124 -119 -102 -44 -291 -35 -415 20 -70
31 -167 104 -224 170 -29 33 -56 60 -60 60 -5 0 -50 -50 -101 -111 l-93 -111
-3 761 -2 761 -238 0 -237 0 -234 -685 c-178 -519 -238 -685 -250 -685 -12 0
-74 168 -251 685 l-235 685 -947 0 -948 0 0 -155 0 -155 270 0 270 0 0 -780 0
-780 185 0 185 0 0 780 0 780 250 0 250 0 0 -780 0 -780 170 0 170 0 0 621 c0
566 1 620 16 617 16 -3 38 -62 348 -955 l99 -283 156 0 156 0 215 620 c174
501 218 620 233 620 16 0 17 -36 17 -620 l0 -620 175 0 175 0 0 141 0 141 53
-58 c65 -71 173 -143 275 -183 264 -101 619 -91 825 24 116 66 206 184 242
321 21 78 21 250 0 328 -35 131 -118 234 -243 299 -99 52 -156 71 -350 112
-217 47 -259 60 -315 95 -75 48 -105 139 -73 223 35 91 110 129 271 135 170 6
289 -29 397 -119 26 -21 55 -39 65 -39 22 1 197 236 189 255 -16 42 -192 150
-293 180 -125 37 -330 54 -458 38z"/>
</g>
</svg>
