<?xml version="1.0" standalone="no"?>
<!DOCTYPE svg PUBLIC "-//W3C//DTD SVG 20010904//EN"
 "http://www.w3.org/TR/2001/REC-SVG-20010904/DTD/svg10.dtd">
<svg version="1.0" xmlns="http://www.w3.org/2000/svg"
 width="500.000000pt" height="500.000000pt" viewBox="0 0 500.000000 500.000000"
 preserveAspectRatio="xMidYMid meet">
<metadata>
Created by potrace 1.16, written by Peter Selinger 2001-2019
</metadata>
<g transform="translate(0.000000,500.000000) scale(0.100000,-0.100000)"
fill="#000000" stroke="none">
<path d="M2304 3386 c-119 -27 -196 -83 -240 -173 -55 -111 -30 -264 54 -346
54 -52 125 -83 267 -117 71 -17 142 -37 160 -44 39 -17 73 -58 80 -100 8 -41
-19 -110 -51 -131 -39 -25 -119 -36 -186 -25 -83 13 -141 44 -206 108 l-55 56
-36 -44 c-20 -24 -46 -55 -58 -69 l-22 -26 -1 453 0 453 -141 -3 -141 -3 -139
-404 c-76 -222 -140 -405 -143 -408 -8 -9 -22 28 -157 424 l-134 392 -140 3
c-77 2 -330 2 -562 0 l-423 -2 0 -90 0 -90 160 0 160 0 0 -465 0 -465 110 0
110 0 0 465 0 465 145 0 145 0 0 -465 0 -465 105 0 105 0 0 370 c0 204 3 370
8 370 4 0 18 -30 31 -67 13 -38 71 -204 128 -370 l106 -303 92 0 92 0 128 370
c71 204 132 370 137 370 4 0 8 -166 8 -370 l0 -370 105 0 105 0 0 83 0 83 48
-46 c91 -88 221 -132 387 -133 251 -1 387 106 402 313 8 105 -14 177 -72 239
-60 64 -125 93 -289 130 -160 36 -196 51 -219 90 -56 96 20 180 164 181 85 0
155 -21 212 -65 25 -19 48 -35 50 -35 5 0 97 122 111 147 10 18 -100 91 -173
114 -86 26 -244 34 -327 15z"/>
</g>
</svg>
